<?xml version="1.0" encoding="UTF-8" standalone="no"?>
<!DOCTYPE svg PUBLIC "-//W3C//DTD SVG 1.1//EN" "http://www.w3.org/Graphics/SVG/1.1/DTD/svg11.dtd">
<svg width="100%" height="100%" viewBox="0 0 422 457" version="1.1" xmlns="http://www.w3.org/2000/svg" xmlns:xlink="http://www.w3.org/1999/xlink" xml:space="preserve" xmlns:serif="http://www.serif.com/" style="fill-rule:evenodd;clip-rule:evenodd;stroke-linejoin:round;stroke-miterlimit:2;">
    <g id="Master-Composition-Space" serif:id="Master/Composition/Space">
        <circle id="Oval" cx="44.716" cy="316.5" r="42" style="fill:rgb(24,22,88);fill-opacity:0.51;"/>
        <ellipse id="Oval_2" cx="203.716" cy="221" rx="170" ry="169.5" style="fill:rgb(94,235,221);"/>
        <g id="Polygon" transform="matrix(1,0,0,1,297,-14)">
            <path d="M73.716,69.5L106.716,102.5L73.716,135.5L40.716,102.5L73.716,69.5Z" style="fill:rgb(242,242,242);"/>
        </g>
        <g id="Character-And-Mask" serif:id="Character And Mask">
            <ellipse id="Mask" cx="203.716" cy="197" rx="170" ry="193.5" style="fill:rgb(127,142,239);fill-opacity:0.28;"/>
            <g>
                <g id="Head-Front" serif:id="Head/Front" transform="matrix(1.34961,-0.687662,0.654794,1.28511,34.6362,124.278)">
                    <g id="Head-Front-Long" serif:id="Head/Front/Long">
                        <path id="Hair-Back" serif:id="Hair Back" d="M75.216,-27.5C63.342,-27.5 53.716,-17.874 53.716,-6L53.716,15C53.716,26.066 62.076,35.179 72.825,36.368C72.828,36.42 72.831,36.471 72.834,36.522L101.834,36.522C106.417,32.044 101.925,3.492 98.478,-9.21C96.929,-19.562 88,-27.5 77.216,-27.5L75.216,-27.5Z" style="fill:rgb(24,22,88);"/>
                        <g id="Head">
                            <path id="SKIN" d="M76.652,20.744C83.127,24.647 89.49,26.533 92.477,25.763C99.966,23.833 100.654,-3.565 94.86,-14.366C89.065,-25.167 59.275,-29.875 57.773,-8.475C57.252,-1.047 60.371,5.581 64.979,10.99L56.716,49.5L80.716,49.5L76.652,20.744Z" style="fill:rgb(212,161,129);"/>
                        </g>
                        <path id="Hair-Front" serif:id="Hair Front" d="M54.597,-8.35C55.294,-9.039 55.968,-9.705 56.637,-10.302L56.605,-11.079C56.605,-11.079 64.138,-26.5 75.718,-26.5C87.287,-26.5 90.946,-21.121 94.057,-16.549L94.065,-16.537C92.438,-10.955 87.535,-8.696 81.99,-6.142C79.603,-5.043 77.097,-3.888 74.682,-2.391C73.736,-3.159 72.53,-3.62 71.216,-3.62C68.179,-3.62 65.716,-1.157 65.716,1.88C65.716,4.918 68.179,7.38 71.216,7.38C71.3,7.38 71.383,7.378 71.466,7.375C72.572,19.253 72.129,32.817 68.834,36.037L39.834,36.037C39.001,21.573 42.743,17.447 46.566,13.231C50.164,9.263 53.834,5.217 53.834,-7.597C54.092,-7.849 54.346,-8.101 54.597,-8.35L54.597,-8.35Z" style="fill:rgb(24,22,88);"/>
                    </g>
                </g>
                <g id="Character-Lower-Body" serif:id="Character Lower Body" transform="matrix(1,0,0,1,-17,-24)">
                    <path id="SKIN1" serif:id="SKIN" d="M209.069,271.843L283.018,451.686L332.617,603.728L352.202,603.728L273.364,271.843L209.069,271.843Z" style="fill:rgb(212,161,129);"/>
                    <path id="SKIN2" serif:id="SKIN" d="M194.178,271.843C193.39,335.041 181.906,420.127 180.071,424.066C178.237,428.006 53.394,524.26 53.394,524.26L66.883,538.131C66.883,538.131 214.186,455.605 221.003,444.598C227.819,433.591 250.011,332.303 267.829,271.843L194.178,271.843Z" style="fill:rgb(212,161,129);"/>
                    <path id="Pant" d="M258.789,588.068L351.907,578.357L276.869,271.843L199.492,271.843L258.789,588.068Z" style="fill:rgb(25,24,71);"/>
                    <path id="Pant1" serif:id="Pant" d="M72.655,501.883L133.735,571.351C133.735,571.351 230.237,470.079 246.257,439.191C262.277,408.303 275.059,271.843 275.059,271.843L181.162,271.843C181.162,271.843 174.18,391.894 171.749,397.481C169.318,403.068 72.655,501.883 72.655,501.883Z" style="fill:rgb(57,63,130);"/>
                </g>
                <g id="Upper-Body" serif:id="Upper Body" transform="matrix(1.45923,-0.363828,0.350593,1.40615,-3.60303,230.938)">
                    <g id="Upper-Body-Long-Sleeve" serif:id="Upper Body/Long Sleeve">
                        <path id="SKIN3" serif:id="SKIN" d="M234.199,5.425L194.716,10.811L201.8,28.5L233.837,15.799C247.646,17.161 254.323,16.833 253.869,14.815C253.486,13.113 252.018,12.599 250.666,12.126C249.613,11.757 248.63,11.413 248.285,10.551C247.496,8.583 251.985,4.503 256.409,0.815C260.833,-2.873 257.864,-3.552 255.997,-3.497C249.363,-1.942 242.097,1.032 234.199,5.425ZM42.114,102.408C45.045,96.463 70.686,19.95 70.686,19.95L92.584,20.032C92.584,20.032 56.567,101.083 55.024,104.906C53.02,109.872 56.424,117.087 58.732,121.98C59.09,122.737 59.42,123.438 59.701,124.067C56.498,125.5 54.96,123.768 53.338,121.942C51.506,119.879 49.567,117.697 45.004,119.819C43.241,120.64 41.573,121.609 39.943,122.557C34.313,125.829 29.141,128.836 22.105,124.494C20.99,123.806 19.768,121.215 22.721,119.19C30.079,114.145 40.682,105.315 42.114,102.408Z" style="fill:rgb(186,139,114);"/>
                        <path id="Clothes-Back" serif:id="Clothes Back" d="M130.665,-49.5L147.81,-48.358C152.033,-10.157 175.032,13.973 226.527,5.804L233.368,54.999C185.239,61.219 143.029,41.95 134.378,-10.222C132.139,-23.727 130.371,-37.782 130.665,-49.5Z" style="fill:rgb(197,207,214);"/>
                        <path id="Clothes" d="M45.118,92.5C57.022,29.164 82.146,-19.836 120.492,-54.5L122.193,-54.5L122.207,-54.484L148.184,-48.535C148.184,-17.331 155.126,5.984 161.8,28.4C164.682,38.08 167.514,47.593 169.716,57.5L99.56,57.5C98.572,68.851 97.965,80.518 97.648,92.5L45.118,92.5Z" style="fill:rgb(242,242,242);"/>
                        <path id="Shade" d="M99.56,57.5C101.572,34.39 105.165,12.59 111.104,-7.902C109.802,14.012 109.441,41.198 113.819,57.5L99.56,57.5Z" style="fill-opacity:0.1;"/>
                    </g>
                </g>
            </g>
        </g>
        <circle id="Oval_3" cx="293.716" cy="387.5" r="42" style="fill:rgb(94,114,235);fill-opacity:0.89;"/>
        <g id="Polygon_2" transform="matrix(1.4375,0,0,1.3125,-55.3133,-10.5937)">
            <path d="M296.716,27.5L304.716,35.5L296.716,43.5L288.716,35.5L296.716,27.5Z" style="fill:rgb(0,235,221);fill-opacity:0.4;"/>
        </g>
    </g>
</svg>
