<?xml version="1.0" encoding="UTF-8" standalone="no"?>
<!DOCTYPE svg PUBLIC "-//W3C//DTD SVG 1.1//EN" "http://www.w3.org/Graphics/SVG/1.1/DTD/svg11.dtd">
<svg width="100%" height="100%" viewBox="0 0 940 549" version="1.1" xmlns="http://www.w3.org/2000/svg" xmlns:xlink="http://www.w3.org/1999/xlink" xml:space="preserve" xmlns:serif="http://www.serif.com/" style="fill-rule:evenodd;clip-rule:evenodd;stroke-linejoin:round;stroke-miterlimit:2;">
    <g transform="matrix(1,0,0,1,-41.9997,0)">
        <g transform="matrix(1,0,0,1,-10,-12.5385)">
            <g id="Master-Scene-3-Characters" serif:id="Master/Scene/3 Characters">
                <g id="Background" transform="matrix(1,0,0,1,105.728,0.0005)">
                    <g id="Background-Wireframe-2" serif:id="Background/Wireframe 2">
                        <g id="Mobile3">
                            <path id="Container" d="M739,20.538C739,16.123 735.415,12.538 731,12.538L600,12.538C595.585,12.538 592,16.123 592,20.538L592,284.538C592,288.954 595.585,292.538 600,292.538L731,292.538C735.415,292.538 739,288.954 739,284.538L739,20.538Z" style="fill:rgb(199,209,217);"/>
                            <circle id="Touch" cx="665" cy="260.538" r="15" style="fill:white;"/>
                            <g id="Camera">
                                <circle id="Lens" cx="652" cy="29.538" r="2" style="fill:white;"/>
                                <path id="Sensor" d="M680,29.538C680,28.435 679.104,27.538 678,27.538L661,27.538C659.896,27.538 659,28.435 659,29.538C659,30.642 659.896,31.538 661,31.538L678,31.538C679.104,31.538 680,30.642 680,29.538Z" style="fill:white;"/>
                            </g>
                            <g id="Rows">
                                <g id="Row">
                                    <path id="Container_2" d="M725,44.538C725,42.331 723.208,40.538 721,40.538L610,40.538C607.792,40.538 606,42.331 606,44.538L606,87.303C606,89.511 607.792,91.303 610,91.303L721,91.303C723.208,91.303 725,89.511 725,87.303L725,44.538Z" style="fill:white;"/>
                                    <g id="Text-Stuff" serif:id="Text Stuff">
                                        <path id="Label" d="M676,58.766C676,57.111 674.656,55.766 673,55.766L618,55.766C616.344,55.766 615,57.111 615,58.766L615,60.38C615,62.036 616.344,63.38 618,63.38L673,63.38C674.656,63.38 676,62.036 676,60.38L676,58.766Z" style="fill:rgb(199,209,217);"/>
                                        <path id="Label_2" d="M655.945,71.456C655.945,69.801 654.601,68.456 652.945,68.456L618,68.456C616.344,68.456 615,69.801 615,71.456L615,73.07C615,74.726 616.344,76.07 618,76.07L652.945,76.07C654.601,76.07 655.945,74.726 655.945,73.07L655.945,71.456Z" style="fill:rgb(199,209,217);"/>
                                    </g>
                                    <g id="Check">
                                        <circle id="Background1" serif:id="Background" cx="712.282" cy="65.918" r="7" style="fill:rgb(199,209,217);"/>
                                        <circle id="Indicator" cx="712.282" cy="65.918" r="3" style="fill:rgb(242,242,242);"/>
                                    </g>
                                </g>
                                <g id="Row_2">
                                    <path id="Background_2" d="M725,103.538C725,101.331 723.208,99.538 721,99.538L610,99.538C607.792,99.538 606,101.331 606,103.538L606,133.244C606,135.452 607.792,137.244 610,137.244L721,137.244C723.208,137.244 725,135.452 725,133.244L725,103.538Z" style="fill:white;"/>
                                    <g id="Text">
                                        <path id="Name" d="M706,113.681C706,112.12 704.733,110.852 703.171,110.852L647.829,110.852C646.267,110.852 645,112.12 645,113.681C645,115.242 646.267,116.509 647.829,116.509L703.171,116.509C704.733,116.509 706,115.242 706,113.681Z" style="fill:rgb(199,209,217);"/>
                                        <path id="Name_2" d="M685.945,123.109C685.945,121.548 684.678,120.28 683.117,120.28L647.829,120.28C646.267,120.28 645,121.548 645,123.109C645,124.67 646.267,125.937 647.829,125.937L683.117,125.937C684.678,125.937 685.945,124.67 685.945,123.109Z" style="fill:rgb(199,209,217);"/>
                                    </g>
                                    <circle id="Avatar" cx="627" cy="118.395" r="12" style="fill:rgb(197,207,214);"/>
                                </g>
                                <g id="Row_3">
                                    <path id="Container_3" d="M725,149.538C725,147.331 723.208,145.538 721,145.538L610,145.538C607.792,145.538 606,147.331 606,149.538L606,179.244C606,181.452 607.792,183.244 610,183.244L721,183.244C723.208,183.244 725,181.452 725,179.244L725,149.538Z" style="fill:white;"/>
                                    <g id="Text-Stuff_2" serif:id="Text Stuff_2">
                                        <path id="Label_3" d="M676,159.681C676,158.12 674.733,156.852 673.171,156.852L617.829,156.852C616.267,156.852 615,158.12 615,159.681C615,161.242 616.267,162.509 617.829,162.509L673.171,162.509C674.733,162.509 676,161.242 676,159.681Z" style="fill:rgb(199,209,217);"/>
                                        <path id="Label_4" d="M655.945,169.109C655.945,167.548 654.678,166.28 653.117,166.28L617.829,166.28C616.267,166.28 615,167.548 615,169.109C615,170.67 616.267,171.937 617.829,171.937L653.117,171.937C654.678,171.937 655.945,170.67 655.945,169.109Z" style="fill:rgb(199,209,217);"/>
                                    </g>
                                    <g id="Check_2">
                                        <circle id="Background_3" cx="712.282" cy="164.395" r="7" style="fill:rgb(199,209,217);"/>
                                        <circle id="Indicator_2" cx="712.282" cy="164.395" r="3" style="fill:rgb(242,242,242);"/>
                                    </g>
                                </g>
                                <g id="Row_4">
                                    <path id="Background_4" d="M725,195.538C725,193.331 723.208,191.538 721,191.538L610,191.538C607.792,191.538 606,193.331 606,195.538L606,225.244C606,227.452 607.792,229.244 610,229.244L721,229.244C723.208,229.244 725,227.452 725,225.244L725,195.538Z" style="fill:white;"/>
                                    <g id="Text_2">
                                        <path id="Name_3" d="M706,205.681C706,204.12 704.733,202.852 703.171,202.852L647.829,202.852C646.267,202.852 645,204.12 645,205.681C645,207.242 646.267,208.509 647.829,208.509L703.171,208.509C704.733,208.509 706,207.242 706,205.681Z" style="fill:rgb(199,209,217);"/>
                                        <path id="Name_4" d="M685.945,215.109C685.945,213.548 684.678,212.28 683.117,212.28L647.829,212.28C646.267,212.28 645,213.548 645,215.109C645,216.67 646.267,217.937 647.829,217.937L683.117,217.937C684.678,217.937 685.945,216.67 685.945,215.109Z" style="fill:rgb(199,209,217);"/>
                                    </g>
                                    <circle id="Avatar_2" cx="627" cy="210.395" r="12" style="fill:rgb(197,207,214);"/>
                                </g>
                            </g>
                        </g>
                        <g id="Mobile3_2">
                            <path id="Container_4" d="M247,43.538C247,39.123 243.415,35.538 239,35.538L96,35.538C91.585,35.538 88,39.123 88,43.538L88,329.538C88,333.954 91.585,337.538 96,337.538L239,337.538C243.415,337.538 247,333.954 247,329.538L247,43.538Z" style="fill:rgb(242,242,242);"/>
                            <circle id="Touch_2" cx="167" cy="303.538" r="15" style="fill:white;"/>
                            <g id="Camera_2">
                                <circle id="Lens_2" cx="154" cy="53.538" r="2" style="fill:white;"/>
                                <path id="Sensor_2" d="M182,53.538C182,52.435 181.104,51.538 180,51.538L163,51.538C161.896,51.538 161,52.435 161,53.538C161,54.642 161.896,55.538 163,55.538L180,55.538C181.104,55.538 182,54.642 182,53.538Z" style="fill:white;"/>
                            </g>
                            <g id="Rows_2">
                                <g id="Row_5">
                                    <path id="Background_5" d="M233,67.538C233,65.331 231.208,63.538 229,63.538L106,63.538C103.792,63.538 102,65.331 102,67.538L102,113.538C102,115.746 103.792,117.538 106,117.538L229,117.538C231.208,117.538 233,115.746 233,113.538L233,67.538Z" style="fill:white;"/>
                                    <g id="Text_3">
                                        <path id="Name_5" d="M214,82.738C214,81.083 212.656,79.738 211,79.738L144,79.738C142.344,79.738 141,81.083 141,82.738L141,84.838C141,86.494 142.344,87.838 144,87.838L211,87.838C212.656,87.838 214,86.494 214,84.838L214,82.738Z" style="fill:rgb(199,209,217);"/>
                                        <path id="Name_6" d="M190,96.238C190,94.583 188.656,93.238 187,93.238L144,93.238C142.344,93.238 141,94.583 141,96.238L141,98.338C141,99.994 142.344,101.338 144,101.338L187,101.338C188.656,101.338 190,99.994 190,98.338L190,96.238Z" style="fill:rgb(199,209,217);"/>
                                    </g>
                                    <circle id="Avatar_3" cx="123" cy="90.538" r="12" style="fill:rgb(197,207,214);"/>
                                </g>
                                <g id="Row_6">
                                    <path id="Background_6" d="M233,129.538C233,127.331 231.208,125.538 229,125.538L106,125.538C103.792,125.538 102,127.331 102,129.538L102,163.538C102,165.746 103.792,167.538 106,167.538L229,167.538C231.208,167.538 233,165.746 233,163.538L233,129.538Z" style="fill:white;"/>
                                    <g id="Text_4">
                                        <path id="Name_7" d="M214,141.138C214,139.483 212.656,138.138 211,138.138L144,138.138C142.344,138.138 141,139.483 141,141.138L141,141.438C141,143.094 142.344,144.438 144,144.438L211,144.438C212.656,144.438 214,143.094 214,141.438L214,141.138Z" style="fill:rgb(199,209,217);"/>
                                        <path id="Name_8" d="M190,151.638C190,149.983 188.656,148.638 187,148.638L144,148.638C142.344,148.638 141,149.983 141,151.638L141,151.938C141,153.594 142.344,154.938 144,154.938L187,154.938C188.656,154.938 190,153.594 190,151.938L190,151.638Z" style="fill:rgb(199,209,217);"/>
                                    </g>
                                    <circle id="Avatar_4" cx="123" cy="146.538" r="12" style="fill:rgb(197,207,214);"/>
                                </g>
                                <g id="Row_7">
                                    <path id="Background_7" d="M233,179.538C233,177.331 231.208,175.538 229,175.538L106,175.538C103.792,175.538 102,177.331 102,179.538L102,213.538C102,215.746 103.792,217.538 106,217.538L229,217.538C231.208,217.538 233,215.746 233,213.538L233,179.538Z" style="fill:white;"/>
                                    <g id="Text_5">
                                        <path id="Name_9" d="M214,191.138C214,189.483 212.656,188.138 211,188.138L144,188.138C142.344,188.138 141,189.483 141,191.138L141,191.438C141,193.094 142.344,194.438 144,194.438L211,194.438C212.656,194.438 214,193.094 214,191.438L214,191.138Z" style="fill:rgb(199,209,217);"/>
                                        <path id="Name_10" d="M190,201.638C190,199.983 188.656,198.638 187,198.638L144,198.638C142.344,198.638 141,199.983 141,201.638L141,201.938C141,203.594 142.344,204.938 144,204.938L187,204.938C188.656,204.938 190,203.594 190,201.938L190,201.638Z" style="fill:rgb(199,209,217);"/>
                                    </g>
                                    <circle id="Avatar_5" cx="123" cy="196.538" r="12" style="fill:rgb(175,185,197);"/>
                                </g>
                                <g id="Row_8">
                                    <path id="Background_8" d="M233,229.538C233,227.331 231.208,225.538 229,225.538L106,225.538C103.792,225.538 102,227.331 102,229.538L102,263.538C102,265.746 103.792,267.538 106,267.538L229,267.538C231.208,267.538 233,265.746 233,263.538L233,229.538Z" style="fill:white;"/>
                                    <g id="Text_6">
                                        <path id="Name_11" d="M214,241.138C214,239.483 212.656,238.138 211,238.138L144,238.138C142.344,238.138 141,239.483 141,241.138L141,241.438C141,243.094 142.344,244.438 144,244.438L211,244.438C212.656,244.438 214,243.094 214,241.438L214,241.138Z" style="fill:rgb(199,209,217);"/>
                                        <path id="Name_12" d="M190,251.638C190,249.983 188.656,248.638 187,248.638L144,248.638C142.344,248.638 141,249.983 141,251.638L141,251.938C141,253.594 142.344,254.938 144,254.938L187,254.938C188.656,254.938 190,253.594 190,251.938L190,251.638Z" style="fill:rgb(199,209,217);"/>
                                    </g>
                                    <circle id="Avatar_6" cx="123" cy="246.538" r="12" style="fill:rgb(197,207,214);"/>
                                </g>
                            </g>
                        </g>
                        <g id="Web">
                            <path id="Container_5" d="M588,120.538C588,116.123 584.415,112.538 580,112.538L261,112.538C256.585,112.538 253,116.123 253,120.538L253,450.538C253,454.954 256.585,458.538 261,458.538L580,458.538C584.415,458.538 588,454.954 588,450.538L588,120.538Z" style="fill:rgb(242,242,242);"/>
                            <path id="Background_9" d="M572,163.538C572,159.123 568.415,155.538 564,155.538L510,155.538C505.585,155.538 502,159.123 502,163.538L502,228.538C502,232.954 505.585,236.538 510,236.538L564,236.538C568.415,236.538 572,232.954 572,228.538L572,163.538Z" style="fill:white;"/>
                            <g id="Profile-Info" serif:id="Profile Info">
                                <circle id="Avatar_7" cx="537" cy="186.538" r="16" style="fill:rgb(199,209,217);"/>
                                <path id="Name_13" d="M562,209.538C562,207.883 560.656,206.538 559,206.538L515,206.538C513.344,206.538 512,207.883 512,209.538C512,211.194 513.344,212.538 515,212.538L559,212.538C560.656,212.538 562,211.194 562,209.538Z" style="fill:rgb(199,209,217);"/>
                                <path id="Name_14" d="M554,219.538C554,217.883 552.656,216.538 551,216.538L523,216.538C521.344,216.538 520,217.883 520,219.538C520,221.194 521.344,222.538 523,222.538L551,222.538C552.656,222.538 554,221.194 554,219.538Z" style="fill:rgb(199,209,217);"/>
                            </g>
                            <path id="Header" d="M253,120.538C253,116.12 256.582,112.538 261,112.538L580,112.538C584.418,112.538 588,116.12 588,120.538L588,139.538L253,139.538L253,120.538Z" style="fill:rgb(197,207,214);fill-rule:nonzero;"/>
                            <g id="Buttons">
                                <circle id="buttons" cx="266" cy="126.538" r="4" style="fill:rgb(242,242,242);"/>
                                <circle id="buttons_2" cx="278" cy="126.538" r="4" style="fill:rgb(242,242,242);"/>
                                <circle id="buttons_3" cx="290" cy="126.538" r="4" style="fill:rgb(242,242,242);"/>
                            </g>
                            <g id="Components">
                                <path id="Background_10" d="M572,252.538C572,248.123 568.415,244.538 564,244.538L510,244.538C505.585,244.538 502,248.123 502,252.538L502,430.538C502,434.954 505.585,438.538 510,438.538L564,438.538C568.415,438.538 572,434.954 572,430.538L572,252.538Z" style="fill:white;"/>
                                <g id="Rows_3">
                                    <path id="Data" d="M554,266.538C554,264.331 552.208,262.538 550,262.538L524,262.538C521.792,262.538 520,264.331 520,266.538L520,284.538C520,286.746 521.792,288.538 524,288.538L550,288.538C552.208,288.538 554,286.746 554,284.538L554,266.538Z" style="fill:rgb(199,209,217);"/>
                                    <path id="Data_2" d="M554,300.538C554,298.331 552.208,296.538 550,296.538L524,296.538C521.792,296.538 520,298.331 520,300.538L520,317.538C520,319.746 521.792,321.538 524,321.538L550,321.538C552.208,321.538 554,319.746 554,317.538L554,300.538Z" style="fill:rgb(175,185,197);"/>
                                    <path id="Data_3" d="M554,333.538C554,331.331 552.208,329.538 550,329.538L524,329.538C521.792,329.538 520,331.331 520,333.538L520,350.538C520,352.746 521.792,354.538 524,354.538L550,354.538C552.208,354.538 554,352.746 554,350.538L554,333.538Z" style="fill:rgb(199,209,217);"/>
                                    <path id="Data_4" d="M554,399.538C554,397.331 552.208,395.538 550,395.538L524,395.538C521.792,395.538 520,397.331 520,399.538L520,416.538C520,418.746 521.792,420.538 524,420.538L550,420.538C552.208,420.538 554,418.746 554,416.538L554,399.538Z" style="fill:rgb(199,209,217);"/>
                                    <path id="Data_5" d="M554,366.538C554,364.331 552.208,362.538 550,362.538L524,362.538C521.792,362.538 520,364.331 520,366.538L520,383.538C520,385.746 521.792,387.538 524,387.538L550,387.538C552.208,387.538 554,385.746 554,383.538L554,366.538Z" style="fill:rgb(197,207,214);"/>
                                </g>
                            </g>
                            <g id="Rows_4">
                                <g id="Row_9">
                                    <path id="Container_6" d="M494,160.538C494,158.331 492.208,156.538 490,156.538L273,156.538C270.792,156.538 269,158.331 269,160.538L269,199.538C269,201.746 270.792,203.538 273,203.538L490,203.538C492.208,203.538 494,201.746 494,199.538L494,160.538Z" style="fill:white;"/>
                                    <g id="Text-Stuff_3" serif:id="Text Stuff_3">
                                        <path id="Label_5" d="M445,173.638C445,171.983 443.656,170.638 442,170.638L281,170.638C279.344,170.638 278,171.983 278,173.638L278,174.688C278,176.344 279.344,177.688 281,177.688L442,177.688C443.656,177.688 445,176.344 445,174.688L445,173.638Z" style="fill:rgb(199,209,217);"/>
                                        <path id="Label_6" d="M390.096,185.388C390.096,183.733 388.752,182.388 387.096,182.388L281,182.388C279.344,182.388 278,183.733 278,185.388L278,186.438C278,188.094 279.344,189.438 281,189.438L387.096,189.438C388.752,189.438 390.096,188.094 390.096,186.438L390.096,185.388Z" style="fill:rgb(199,209,217);"/>
                                    </g>
                                    <g id="Check_3">
                                        <circle id="Background_11" cx="469.954" cy="180.038" r="7" style="fill:rgb(199,209,217);"/>
                                        <circle id="Indicator_3" cx="469.954" cy="180.038" r="3" style="fill:rgb(242,242,242);"/>
                                    </g>
                                </g>
                                <g id="Row_10">
                                    <path id="Container_7" d="M494,215.538C494,213.331 492.208,211.538 490,211.538L273,211.538C270.792,211.538 269,213.331 269,215.538L269,246.538C269,248.746 270.792,250.538 273,250.538L490,250.538C492.208,250.538 494,248.746 494,246.538L494,215.538Z" style="fill:white;"/>
                                    <g id="Text-Stuff_4" serif:id="Text Stuff_4">
                                        <path id="Label_7" d="M445,226.163C445,224.549 443.689,223.238 442.075,223.238L280.925,223.238C279.311,223.238 278,224.549 278,226.163C278,227.778 279.311,229.088 280.925,229.088L442.075,229.088C443.689,229.088 445,227.778 445,226.163Z" style="fill:rgb(199,209,217);"/>
                                        <path id="Label_8" d="M390.096,235.913C390.096,234.299 388.785,232.988 387.171,232.988L280.925,232.988C279.311,232.988 278,234.299 278,235.913C278,237.528 279.311,238.838 280.925,238.838L387.171,238.838C388.785,238.838 390.096,237.528 390.096,235.913Z" style="fill:rgb(199,209,217);"/>
                                    </g>
                                    <g id="Check_4">
                                        <circle id="Background_12" cx="469.954" cy="231.038" r="7" style="fill:rgb(199,209,217);"/>
                                        <circle id="Indicator_4" cx="469.954" cy="231.038" r="3" style="fill:rgb(242,242,242);"/>
                                    </g>
                                </g>
                                <g id="Row_11">
                                    <path id="Container_8" d="M494,262.538C494,260.331 492.208,258.538 490,258.538L273,258.538C270.792,258.538 269,260.331 269,262.538L269,293.538C269,295.746 270.792,297.538 273,297.538L490,297.538C492.208,297.538 494,295.746 494,293.538L494,262.538Z" style="fill:white;"/>
                                    <g id="Text-Stuff_5" serif:id="Text Stuff_5">
                                        <path id="Label_9" d="M445,273.163C445,271.549 443.689,270.238 442.075,270.238L280.925,270.238C279.311,270.238 278,271.549 278,273.163C278,274.778 279.311,276.088 280.925,276.088L442.075,276.088C443.689,276.088 445,274.778 445,273.163Z" style="fill:rgb(199,209,217);"/>
                                        <path id="Label_10" d="M390.096,282.913C390.096,281.299 388.785,279.988 387.171,279.988L280.925,279.988C279.311,279.988 278,281.299 278,282.913C278,284.528 279.311,285.838 280.925,285.838L387.171,285.838C388.785,285.838 390.096,284.528 390.096,282.913Z" style="fill:rgb(199,209,217);"/>
                                    </g>
                                    <g id="Check_5">
                                        <circle id="Background_13" cx="469.954" cy="278.038" r="7" style="fill:rgb(199,209,217);"/>
                                        <circle id="Indicator_5" cx="469.954" cy="278.038" r="3" style="fill:rgb(175,185,197);"/>
                                    </g>
                                </g>
                                <g id="Row_12">
                                    <path id="Container_9" d="M494,403.538C494,401.331 492.208,399.538 490,399.538L273,399.538C270.792,399.538 269,401.331 269,403.538L269,434.538C269,436.746 270.792,438.538 273,438.538L490,438.538C492.208,438.538 494,436.746 494,434.538L494,403.538Z" style="fill:white;"/>
                                    <g id="Text-Stuff_6" serif:id="Text Stuff_6">
                                        <path id="Label_11" d="M445,414.163C445,412.549 443.689,411.238 442.075,411.238L280.925,411.238C279.311,411.238 278,412.549 278,414.163C278,415.778 279.311,417.088 280.925,417.088L442.075,417.088C443.689,417.088 445,415.778 445,414.163Z" style="fill:rgb(199,209,217);"/>
                                        <path id="Label_12" d="M390.096,423.913C390.096,422.299 388.785,420.988 387.171,420.988L280.925,420.988C279.311,420.988 278,422.299 278,423.913C278,425.528 279.311,426.838 280.925,426.838L387.171,426.838C388.785,426.838 390.096,425.528 390.096,423.913Z" style="fill:rgb(199,209,217);"/>
                                    </g>
                                    <g id="Check_6">
                                        <circle id="Background_14" cx="469.954" cy="419.038" r="7" style="fill:rgb(199,209,217);"/>
                                        <circle id="Indicator_6" cx="469.954" cy="419.038" r="3" style="fill:rgb(242,242,242);"/>
                                    </g>
                                </g>
                                <g id="Row_13">
                                    <path id="Container_10" d="M494,356.538C494,354.331 492.208,352.538 490,352.538L273,352.538C270.792,352.538 269,354.331 269,356.538L269,387.538C269,389.746 270.792,391.538 273,391.538L490,391.538C492.208,391.538 494,389.746 494,387.538L494,356.538Z" style="fill:white;"/>
                                    <g id="Text-Stuff_7" serif:id="Text Stuff_7">
                                        <path id="Label_13" d="M445,367.163C445,365.549 443.689,364.238 442.075,364.238L280.925,364.238C279.311,364.238 278,365.549 278,367.163C278,368.778 279.311,370.088 280.925,370.088L442.075,370.088C443.689,370.088 445,368.778 445,367.163Z" style="fill:rgb(199,209,217);"/>
                                        <path id="Label_14" d="M390.096,376.913C390.096,375.299 388.785,373.988 387.171,373.988L280.925,373.988C279.311,373.988 278,375.299 278,376.913C278,378.528 279.311,379.838 280.925,379.838L387.171,379.838C388.785,379.838 390.096,378.528 390.096,376.913Z" style="fill:rgb(199,209,217);"/>
                                    </g>
                                    <g id="Check_7">
                                        <circle id="Background_15" cx="469.954" cy="372.038" r="7" style="fill:rgb(199,209,217);"/>
                                        <circle id="Indicator_7" cx="469.954" cy="372.038" r="3" style="fill:rgb(242,242,242);"/>
                                    </g>
                                </g>
                                <g id="Row_14">
                                    <path id="Container_11" d="M494,309.538C494,307.331 492.208,305.538 490,305.538L273,305.538C270.792,305.538 269,307.331 269,309.538L269,340.538C269,342.746 270.792,344.538 273,344.538L490,344.538C492.208,344.538 494,342.746 494,340.538L494,309.538Z" style="fill:white;"/>
                                    <g id="Text-Stuff_8" serif:id="Text Stuff_8">
                                        <path id="Label_15" d="M445,320.163C445,318.549 443.689,317.238 442.075,317.238L280.925,317.238C279.311,317.238 278,318.549 278,320.163C278,321.778 279.311,323.088 280.925,323.088L442.075,323.088C443.689,323.088 445,321.778 445,320.163Z" style="fill:rgb(199,209,217);"/>
                                        <path id="Label_16" d="M390.096,329.913C390.096,328.299 388.785,326.988 387.171,326.988L280.925,326.988C279.311,326.988 278,328.299 278,329.913C278,331.528 279.311,332.838 280.925,332.838L387.171,332.838C388.785,332.838 390.096,331.528 390.096,329.913Z" style="fill:rgb(199,209,217);"/>
                                    </g>
                                    <g id="Check_8">
                                        <circle id="Background_16" cx="469.954" cy="325.038" r="7" style="fill:rgb(199,209,217);"/>
                                        <circle id="Indicator_8" cx="469.954" cy="325.038" r="3" style="fill:rgb(242,242,242);"/>
                                    </g>
                                </g>
                            </g>
                        </g>
                        <g id="Image">
                            <path id="Fill-35" serif:id="Fill 35" d="M735.007,162.524C735.003,162.534 734.999,162.544 734.993,162.556C734.999,162.546 735.007,162.506 735.007,162.524" style="fill:rgb(197,207,214);"/>
                            <path id="Fill-37" serif:id="Fill 37" d="M734.998,162.539C734.998,162.541 734.996,162.545 734.996,162.549C734.996,162.539 735.014,162.509 734.998,162.539" style="fill:rgb(197,207,214);"/>
                            <path id="Fill-39" serif:id="Fill 39" d="M735.067,162.37C735.053,162.41 735.035,162.448 735.019,162.488C735.027,162.468 735.035,162.452 735.043,162.432C734.835,162.952 734.967,162.614 735.067,162.37" style="fill:rgb(197,207,214);"/>
                            <path id="Fill-41" serif:id="Fill 41" d="M735.022,162.491C735.014,162.509 735.006,162.529 734.998,162.547C734.94,162.659 735.022,162.491 735.022,162.491" style="fill:rgb(197,207,214);"/>
                            <path id="Fill-45" serif:id="Fill 45" d="M734.999,162.54C734.999,162.538 734.999,162.538 735.001,162.536C734.999,162.538 734.999,162.538 734.999,162.54" style="fill:rgb(197,207,214);"/>
                            <path id="Fill-47" serif:id="Fill 47" d="M734.99,162.554C734.978,162.578 735.046,162.462 734.99,162.554Z" style="fill:rgb(197,207,214);"/>
                            <path id="Fill-49" serif:id="Fill 49" d="M734.998,162.54L735.002,162.536C735,162.538 735,162.54 734.998,162.54" style="fill:rgb(197,207,214);"/>
                            <path id="Photo-Background" serif:id="Photo Background" d="M782,114.538C782,112.331 780.208,110.538 778,110.538L691,110.538C688.792,110.538 687,112.331 687,114.538L687,169.538C687,171.746 688.792,173.538 691,173.538L778,173.538C780.208,173.538 782,171.746 782,169.538L782,114.538Z" style="fill:rgb(197,207,214);"/>
                            <path id="Mountains" d="M723,128.538L695,173.538L751,173.538L723,128.538Z" style="fill:rgb(175,185,197);"/>
                            <path id="Mountains_2" d="M750.5,140.538L726,173.538L775,173.538L750.5,140.538Z" style="fill:rgb(175,185,197);"/>
                            <circle id="Sun" cx="761" cy="131.538" r="9" style="fill:white;"/>
                        </g>
                    </g>
                </g>
                <g id="Master-Pose-Standing" serif:id="Master/Pose/Standing" transform="matrix(-1,0,0,1,878,214)">
                    <g id="Master-Pose-Standing1" serif:id="Master/Pose/Standing">
                        <g id="Head-Front" serif:id="Head/Front" transform="matrix(1,0,0,1,82,0)">
                            <g id="Head-Front-Wavy" serif:id="Head/Front/Wavy">
                                <g id="Head">
                                    <path id="SKIN" d="M-38.857,-38.328C-33.062,-27.526 -33.75,-0.129 -41.24,1.802C-44.226,2.572 -50.589,0.686 -57.064,-3.217L-53,25.538L-77,25.538L-68.738,-12.972C-73.346,-18.381 -76.464,-25.009 -75.943,-32.436C-74.442,-53.837 -44.651,-49.129 -38.857,-38.328Z" style="fill:rgb(145,91,60);"/>
                                </g>
                                <path id="hair" d="M-36.591,-33.478C-36.829,-34.878 -37.41,-36.433 -37.878,-37.757C-38.483,-39.465 -39.397,-41.004 -40.404,-42.455C-42.299,-45.187 -44.572,-47.654 -47.082,-49.701C-51.667,-53.441 -57.503,-55.598 -63.243,-54.898C-66.14,-54.544 -68.953,-53.439 -71.347,-51.599C-73.511,-49.937 -75.591,-47.49 -78.392,-47.314C-81.44,-47.123 -84.234,-49.813 -86.678,-51.474C-89.434,-53.347 -92.366,-54.712 -95.587,-55.243C-100.983,-56.131 -106.052,-54.308 -109.771,-49.881C-113.728,-45.17 -116.604,-38.261 -114.006,-32.019C-113.523,-30.859 -112.901,-29.881 -112.009,-29.07C-111.191,-28.326 -109.942,-27.535 -109.61,-26.347C-109.258,-25.085 -110.31,-23.456 -110.718,-22.316C-111.303,-20.684 -111.783,-18.97 -111.612,-17.196C-111.332,-14.282 -109.501,-11.5 -107.567,-9.585C-105.6,-7.636 -103.178,-6.519 -100.591,-6.003C-98.864,-5.659 -97.099,-5.47 -95.343,-5.599C-94.472,-5.663 -93.703,-5.905 -92.859,-6.097C-92.037,-6.285 -91.579,-6.067 -90.882,-5.616C-87.646,-3.524 -84.166,-2.715 -80.43,-3.026C-77.276,-3.289 -73.642,-4.053 -71.069,-6.214C-68.212,-8.613 -68.269,-11.922 -68.941,-15.458C-68.229,-15.105 -66.258,-14.886 -67.436,-16.293C-67.902,-16.851 -68.784,-17.078 -69.382,-17.405C-70.079,-17.787 -70.787,-18.28 -71.328,-18.903C-73.513,-21.416 -71.306,-26.532 -68.56,-27.374C-64.479,-28.627 -63.565,-22.856 -60.653,-21.363C-58.978,-20.505 -57.226,-21.678 -55.971,-22.876C-54.29,-24.481 -53.145,-26.606 -52.155,-28.77C-51.341,-30.551 -50.583,-32.358 -49.752,-34.13C-49.365,-34.958 -48.022,-37.298 -48.696,-38.234C-45.774,-38.817 -42.518,-37.603 -40.001,-36.01C-38.961,-35.351 -38.168,-34.625 -37.613,-33.463C-37.494,-33.214 -37.235,-32.474 -36.91,-32.443C-36.305,-32.387 -36.531,-33.126 -36.591,-33.478" style="fill:rgb(44,27,24);"/>
                            </g>
                        </g>
                        <g id="Lower-Body-Standing" serif:id="Lower Body/Standing" transform="matrix(1,0,0,1,0,187)">
                            <g id="Lower-Body-Standing-Baggy-Pants" serif:id="Lower Body/Standing/Baggy Pants">
                                <path id="SKIN1" serif:id="SKIN" d="M3,-78.462L52.082,45.765L85.001,150.788L98,150.788L45.674,-78.462L3,-78.462Z" style="fill:rgb(145,91,60);"/>
                                <path id="SKIN2" serif:id="SKIN" d="M-6.883,-78.462C-7.406,-34.807 -15.028,23.965 -16.246,26.687C-17.464,29.408 -100.324,95.896 -100.324,95.896L-91.371,105.477C-91.371,105.477 6.397,48.472 10.921,40.869C15.445,33.266 30.174,-36.698 42,-78.462L-6.883,-78.462Z" style="fill:rgb(145,91,60);"/>
                                <g id="Left--Shoe-" serif:id="Left [Shoe]">
                                    <path id="shoe" d="M-98.884,94.102C-99.212,92.978 -100.396,92.309 -101.496,92.711C-103.502,93.444 -106.436,94.63 -107.736,95.721C-109.808,97.46 -113.204,101.486 -113.204,101.486C-111.187,103.89 -76.949,144.692 -76.949,144.692C-76.949,144.692 -69.968,141.704 -72.569,137.703C-75.17,133.702 -76.826,131.002 -76.826,131.002L-84.724,103.408C-84.879,102.866 -85.451,102.56 -85.988,102.73L-90.202,104.067C-90.202,104.067 -94.588,102.023 -96.351,99.922C-97.423,98.644 -98.335,95.986 -98.884,94.102Z" style="fill:rgb(228,228,228);"/>
                                </g>
                                <g id="Right--Shoe-" serif:id="Right {Shoe]">
                                    <path id="shoe_2" d="M82.45,144.822C81.378,144.351 80.104,144.828 79.705,145.929C78.977,147.936 78,150.947 78,152.644C78,155.349 78.901,160.538 78.901,160.538L135.303,160.538C135.303,160.538 137.502,153.27 132.765,152.69C128.028,152.111 124.895,151.644 124.895,151.644L98.68,139.957C98.165,139.727 97.563,139.968 97.348,140.489L95.663,144.577C95.663,144.577 91.278,146.623 88.537,146.623C86.868,146.623 84.246,145.612 82.45,144.822Z" style="fill:rgb(228,228,228);"/>
                                </g>
                                <path id="Pant" d="M36,139.971L97.804,133.263L48,-78.462L-3.356,-78.462L36,139.971Z" style="fill:rgb(42,7,82);"/>
                                <path id="Pant1" serif:id="Pant" d="M-87.54,80.438L-47,128.424C-47,128.424 17.05,58.47 27.683,37.134C38.315,15.798 46.799,-78.462 46.799,-78.462L-15.522,-78.462C-15.522,-78.462 -20.156,4.464 -21.769,8.323C-23.383,12.182 -87.54,80.438 -87.54,80.438Z" style="fill:rgb(52,42,131);"/>
                            </g>
                        </g>
                        <g id="Upper-Body" serif:id="Upper Body" transform="matrix(1,0,0,1,22,82)">
                            <g id="Upper-Body-Jacket" serif:id="Upper Body/Jacket">
                                <path id="SKIN3" serif:id="SKIN" d="M91.372,38.296L63.044,10.661L53.636,26.94L83.093,44.308C90.479,55.943 94.817,60.97 96.107,59.39C97.195,58.057 96.696,56.596 96.237,55.251C95.879,54.203 95.546,53.225 96.004,52.432C97.051,50.62 102.965,51.657 108.535,52.882C114.106,54.106 112.817,51.37 111.633,49.942C106.368,45.693 99.615,41.811 91.372,38.296ZM-75.602,78.446C-72.671,72.501 -62.692,14.558 -62.692,14.558L-41.795,14.641C-41.795,14.641 -61.149,77.121 -62.692,80.944C-64.696,85.91 -61.292,93.125 -58.984,98.018C-58.627,98.775 -58.296,99.476 -58.015,100.105C-61.218,101.538 -62.756,99.806 -64.378,97.98C-66.21,95.917 -68.149,93.735 -72.712,95.857C-74.475,96.678 -76.143,97.647 -77.773,98.595C-83.403,101.867 -88.575,104.874 -95.611,100.532C-96.726,99.844 -97.949,97.253 -94.995,95.228C-87.638,90.183 -77.035,81.353 -75.602,78.446Z" style="fill:rgb(145,91,60);"/>
                                <path id="Coat-Back" serif:id="Coat Back" d="M-3.305,-73.13L5.342,-74.613C20.23,-37.422 46.222,-3.63 83.318,26.763L55.286,60.819C18.194,17.543 -4.67,-27.107 -3.305,-73.13Z" style="fill:rgb(0,176,163);"/>
                                <path id="Shirt" d="M-41,35.538L36,35.538C36,35.538 9.241,-29.524 9.241,-75.001L-13.986,-78.462C-32.24,-49.103 -37.395,-12.957 -41,35.538Z" style="fill:rgb(199,209,217);"/>
                                <path id="Coat-Front" serif:id="Coat Front" d="M-76,68.538C-67.579,-26.466 -14.496,-78.462 -14.496,-78.462L-14.478,-78.445C-14.475,-78.451 -14.471,-78.456 -14.468,-78.462L-12.952,-78.462C-10.231,-78.368 -4.662,-78.124 -4.662,-78.124L0.95,-62.085C1.841,-32.751 11.351,56.144 11.351,56.144L-39.05,56.144C-38.964,60.22 -38.774,64.353 -38.469,68.538L-76,68.538Z" style="fill:rgb(94,235,221);"/>
                                <path id="Shade" d="M-39.042,56.538C-39.444,38.788 -37.869,22.122 -35.242,7.04C-33.868,24.937 -30.997,46.471 -25,56.538L-39.042,56.538Z" style="fill-opacity:0.1;"/>
                                <path id="Light" d="M-27.889,25.538L-3,13.968L-3,25.538L-27.889,25.538Z" style="fill:white;fill-opacity:0.2;"/>
                            </g>
                        </g>
                    </g>
                </g>
                <g id="Master-Pose-Sitting" serif:id="Master/Pose/Sitting" transform="matrix(1,0,0,1,378,214)">
                    <g id="Master-Pose-Sitting1" serif:id="Master/Pose/Sitting">
                        <g id="Head-Front1" serif:id="Head/Front" transform="matrix(1,0,0,1,38,73)">
                            <g id="Head-Front-Chongo" serif:id="Head/Front/Chongo">
                                <g id="Head1" serif:id="Head">
                                    <path id="SKIN4" serif:id="SKIN" d="M-57.065,-3.217C-50.589,0.686 -44.226,2.572 -41.24,1.802C-33.75,-0.129 -33.062,-27.526 -38.857,-38.328C-44.651,-49.129 -74.442,-53.837 -75.943,-32.436C-76.464,-25.009 -73.346,-18.38 -68.738,-12.971L-77,25.538L-53,25.538L-57.065,-3.217Z" style="fill:rgb(220,174,146);"/>
                                </g>
                                <path id="hair1" serif:id="hair" d="M-48.337,-50.092C-51.616,-51.092 -56.377,-51.431 -58.379,-51.201C-57.24,-53.931 -56.788,-56.972 -57.157,-59.932C-57.515,-62.809 -58.8,-65.259 -59.989,-67.826C-60.537,-69.009 -61.158,-70.186 -62.084,-71.091C-63.028,-72.013 -64.222,-72.622 -65.474,-72.912C-66.755,-73.209 -68.095,-73.185 -69.378,-72.915C-69.946,-72.796 -70.456,-72.536 -71.012,-72.392C-71.582,-72.244 -71.859,-72.601 -72.273,-72.959C-73.27,-73.824 -74.732,-74.25 -75.994,-74.403C-77.41,-74.574 -78.879,-74.361 -80.229,-73.895C-81.543,-73.442 -82.805,-72.706 -83.755,-71.635C-84.178,-71.158 -84.562,-70.615 -84.812,-70.015C-84.914,-69.769 -84.931,-69.623 -85.177,-69.533C-85.404,-69.45 -85.669,-69.447 -85.904,-69.368C-88.17,-68.601 -90.107,-66.85 -91.162,-64.602C-91.777,-63.291 -92.069,-60.982 -91.989,-58.394C-91.909,-55.806 -89.572,-49.053 -87.387,-46.59C-85.436,-44.392 -82.568,-42.941 -79.801,-42.306C-81.638,-40.207 -82.861,-37.583 -83.765,-34.915C-84.747,-32.017 -85.355,-29.005 -85.579,-25.936C-85.792,-23.021 -85.812,-19.938 -85.129,-17.085C-84.489,-14.417 -83.122,-12.228 -80.839,-10.839C-79.794,-10.203 -78.669,-9.725 -77.537,-9.289C-76.422,-8.858 -75.304,-8.44 -74.136,-8.198C-71.925,-7.741 -69.378,-7.82 -67.675,-9.579C-67.061,-10.214 -66.386,-11.011 -65.939,-11.786C-65.778,-12.064 -65.681,-12.247 -65.876,-12.519C-66.11,-12.845 -66.489,-13.095 -66.791,-13.35C-68.507,-14.805 -69.57,-16.748 -69.837,-19.057C-70.109,-21.399 -69.48,-24.422 -67.203,-25.445C-64.392,-26.706 -61.296,-25.258 -58.797,-23.908C-57.735,-27.656 -55.555,-31.03 -52.137,-32.749C-48.355,-34.651 -44.015,-34.874 -40.129,-36.505C-39.116,-36.931 -38.085,-37.413 -37.339,-38.28C-37.027,-38.642 -36.662,-39.112 -36.538,-39.591C-36.374,-40.22 -36.78,-40.747 -37.093,-41.237C-38.755,-43.838 -45.057,-49.092 -48.337,-50.092Z" style="fill:rgb(181,129,67);"/>
                            </g>
                        </g>
                        <g id="Lower-Body-Sitting" serif:id="Lower Body/Sitting" transform="matrix(1,0,0,1,-44,260)">
                            <g id="Lower-Body-Sitting-Skinny-Jeans-1" serif:id="Lower Body/Sitting/Skinny Jeans 1">
                                <g id="Seat">
                                    <g id="Seat_2">
                                        <path id="Seat-Stuff" serif:id="Seat Stuff" d="M-38.377,-36.462L38.877,-36.462L49,87.538L-66,87.538L-38.377,-36.462Z" style="fill:rgb(197,207,214);"/>
                                        <path id="Seat-Stuff_2" serif:id="Seat Stuff_2" d="M-38.377,-36.462L-14.617,-36.462L-0.396,87.538L-66,87.538L-38.377,-36.462Z" style="fill-opacity:0.1;"/>
                                    </g>
                                </g>
                                <path id="LegBack" d="M81.323,-11.895C72.642,6.517 59.077,51.21 59.077,51.21L70.593,56.472C70.593,56.472 99.814,9.491 117.672,-22.625C116.84,-15.395 115.993,-7.255 115.208,1.301C113.347,21.571 115.207,65.365 116.208,78.015C116.837,85.966 127.64,84.3 128.648,77.995C128.819,76.927 129.515,73.177 130.554,67.583C135.647,40.151 148.977,-31.644 149,-49.223C149.01,-56.297 135.19,-62.651 126.953,-57.705C121.296,-63.742 110.588,-67.222 104.436,-57.25C100.525,-50.91 91.233,-32.912 81.323,-11.895Z" style="fill:rgb(220,174,146);"/>
                                <path id="LegLower" d="M59.9,34.663L99.427,-58.974C108.897,-74.207 135.446,-55.875 132.217,-47.04C124.885,-26.982 87.6,37.952 85.415,43.928L59.9,34.663Z" style="fill:rgb(0,64,176);"/>
                                <path id="shoe1" serif:id="shoe" d="M60.664,45.723C59.971,44.779 58.63,44.555 57.734,45.309C56.099,46.684 53.748,48.802 52.899,50.272C51.547,52.614 49.733,57.559 49.733,57.559C52.45,59.128 98.578,85.76 98.578,85.76C98.578,85.76 104.116,80.565 100.304,77.695C96.491,74.824 94.012,72.853 94.012,72.853L77.152,49.625C76.821,49.169 76.179,49.076 75.733,49.42L72.23,52.117C72.23,52.117 67.409,51.697 65.035,50.326C63.589,49.491 61.824,47.305 60.664,45.723Z" style="fill:rgb(228,228,228);"/>
                                <path id="shoe_21" serif:id="shoe_2" d="M116.45,71.822C115.378,71.351 114.104,71.828 113.705,72.929C112.977,74.936 112,77.947 112,79.644C112,82.349 112.901,87.538 112.901,87.538L169.303,87.538C169.303,87.538 171.502,80.27 166.765,79.69C162.028,79.111 158.895,78.644 158.895,78.644L132.68,66.957C132.165,66.727 131.563,66.968 131.348,67.489L129.663,71.577C129.663,71.577 125.278,73.623 122.537,73.623C120.868,73.623 118.246,72.612 116.45,71.822Z" style="fill:rgb(228,228,228);"/>
                                <path id="Leg-and-Butt" serif:id="Leg and Butt" d="M151.77,-42.029C151.77,-15.462 139.154,46.508 139.146,52.358L112,52.379C112,52.379 117.96,-30.564 116.227,-31.457C114.493,-32.351 45.176,-24.537 24.386,-24.537C-5.592,-24.537 -17.994,-43.441 -19,-78.462L40.386,-78.462C52.478,-77.168 115.549,-64.446 138.972,-60.073C149,-58.201 151.77,-49.347 151.77,-42.029Z" style="fill:rgb(94,114,235);"/>
                            </g>
                        </g>
                        <g id="Upper-Body1" serif:id="Upper Body" transform="matrix(1,0,0,1,-22,155)">
                            <g id="Upper-Body-Pointing-Forward" serif:id="Upper Body/Pointing Forward">
                                <path id="SKIN5" serif:id="SKIN" d="M62.348,-54.772L27.638,-35.761L40.456,-22.004L65.677,-45.096C78.963,-48.758 85.039,-51.436 83.904,-53.132C82.948,-54.562 81.405,-54.512 79.985,-54.466C78.878,-54.431 77.845,-54.398 77.22,-55.068C75.794,-56.599 78.515,-61.951 81.315,-66.92C84.114,-71.889 81.121,-71.456 79.409,-70.742C73.807,-66.949 68.12,-61.626 62.348,-54.772ZM97.246,-28.097L82,-19.722L82.868,-4.421C82.868,-4.421 92.743,-11.548 101.238,-13.917C112.07,-16.937 116.453,-19.244 121.746,-25.988C124.578,-29.597 126.982,-36.851 124.286,-39.214C123.252,-40.12 119.399,-37.979 115.468,-35.795C112.472,-34.13 109.43,-32.44 107.556,-32.054C105.034,-31.534 105.329,-34.804 105.565,-37.417C105.734,-39.292 105.873,-40.829 104.918,-40.384C100.455,-40.308 97.246,-28.097 97.246,-28.097Z" style="fill:rgb(204,204,204);"/>
                                <g id="Group-3" serif:id="Group 3">
                                    <path id="Mask" d="M10.734,-39.996C22.892,-40.125 39.104,-42.692 56.403,-53.673L63.196,-38.523C51.264,-26.681 34.486,-16.952 19.816,-17.364C8.255,-17.688 2.347,-31.672 10.734,-39.996Z" style="fill:rgb(18,12,110);"/>
                                </g>
                                <g id="Group-27" serif:id="Group 27">
                                    <path id="Mask1" serif:id="Mask" d="M-22.055,63.797C-33.613,62.29 -44.234,60.905 -50.527,62.144C-57.589,39.211 -51.725,24.772 -46.312,11.443C-43.05,3.409 -39.951,-4.221 -39.944,-13.065C-39.925,-38.819 -19.246,-78.462 -16.203,-78.462L11.544,-78.462C12.784,-62.524 18.079,-45.269 23.407,-27.902C24.652,-23.846 25.898,-19.785 27.095,-15.732C47.26,-11.155 92.036,-27.088 92.036,-27.088C92.036,-27.088 103.34,-3.703 102.487,6.256C76.424,19.869 54.087,25.939 35.683,26.34C36.268,37.259 34.939,47.65 30.474,57.144C24.491,69.865 -0.424,66.617 -22.055,63.797Z" style="fill:rgb(18,12,110);"/>
                                </g>
                            </g>
                        </g>
                    </g>
                </g>
                <g id="Master-Pose-Standing2" serif:id="Master/Pose/Standing" transform="matrix(1,0,0,1,170,214)">
                    <g id="Master-Pose-Standing3" serif:id="Master/Pose/Standing">
                        <g id="Head-Front2" serif:id="Head/Front" transform="matrix(1,0,0,1,82,0)">
                            <g id="Head-Front-Airy" serif:id="Head/Front/Airy">
                                <g id="Head2" serif:id="Head">
                                    <path id="SKIN6" serif:id="SKIN" d="M-57.065,-3.217C-50.589,0.686 -44.226,2.572 -41.24,1.802C-33.75,-0.129 -33.062,-27.526 -38.857,-38.328C-44.651,-49.129 -74.442,-53.837 -75.943,-32.436C-76.464,-25.009 -73.346,-18.38 -68.738,-12.971L-77,25.538L-53,25.538L-57.065,-3.217Z" style="fill:rgb(212,161,129);"/>
                                </g>
                                <path id="hair2" serif:id="hair" d="M-52.536,-50.776C-55.699,-51.295 -64.216,-51.652 -65.787,-51.651C-66.79,-51.651 -67.878,-51.422 -68.473,-52.344C-68.959,-53.098 -68.781,-54.375 -68.926,-55.251C-69.095,-56.268 -69.335,-57.272 -69.577,-58.274C-70.267,-61.125 -71.31,-63.837 -72.769,-66.383C-75.507,-71.16 -79.519,-74.901 -84.583,-77.079C-90.176,-79.483 -96.504,-80.033 -102.519,-79.546C-108.957,-79.024 -114.784,-76.899 -120.862,-74.899C-126.654,-72.993 -132.72,-72.243 -138.778,-73.174C-144.881,-74.111 -149.493,-77.42 -154.641,-80.559C-159.911,-83.774 -165.934,-85.876 -172.165,-85.393C-177.98,-84.941 -183.341,-82.54 -188.15,-79.332C-192.649,-76.331 -196.362,-72.72 -198.458,-67.638C-200.713,-62.171 -200.711,-56.17 -197.003,-51.338C-191.628,-44.335 -181.65,-42.524 -173.349,-42.704C-168.547,-42.808 -163.832,-43.684 -159.299,-45.279C-153.253,-47.405 -148.029,-51.009 -142.373,-53.934C-139.719,-55.306 -136.975,-56.433 -134.099,-57.245C-131.309,-58.033 -128.56,-58.394 -126.034,-56.708C-123.361,-54.925 -120.966,-53.173 -117.908,-52.057C-114.974,-50.986 -111.867,-50.387 -108.742,-50.411C-102.661,-50.458 -96.667,-52.352 -90.761,-53.621C-85.945,-54.656 -80.793,-55.687 -75.883,-54.693C-73.834,-54.277 -70.841,-53.421 -70.101,-51.291C-82.556,-49.034 -87.447,-33.631 -83.936,-22.324C-82.041,-16.222 -70.65,-9.087 -66.221,-12.296C-63.415,-14.328 -65.119,-16.997 -66.221,-18.758C-68.332,-22.132 -69.055,-26.465 -65.148,-28.814C-61.778,-30.839 -58.235,-26.029 -58.168,-26.034C-57.242,-26.107 -49.24,-30.633 -43.726,-37.237C-38.286,-36.915 -37.461,-40.502 -38.76,-43.435C-40.059,-46.368 -48.166,-50.059 -52.536,-50.776Z" style="fill:rgb(24,22,88);"/>
                            </g>
                        </g>
                        <g id="Lower-Body-Standing1" serif:id="Lower Body/Standing" transform="matrix(1,0,0,1,0,187)">
                            <g id="Lower-Body-Standing-Sprint" serif:id="Lower Body/Standing/Sprint">
                                <path id="SKIN7" serif:id="SKIN" d="M-14.356,-78.461C-12.553,-53.852 103.607,18.602 104.284,20.635C104.736,21.99 68.128,106.316 68.128,106.316L78.282,110.262C78.282,110.262 134.433,20.955 131.549,11.439C127.419,-2.186 41.422,-78.2 41.422,-78.2L-14.356,-78.461Z" style="fill:rgb(212,161,129);"/>
                                <path id="shadow" d="M-14.356,-78.461C-12.553,-53.852 103.607,18.602 104.284,20.635C104.736,21.99 68.128,106.316 68.128,106.316L78.282,110.262C78.282,110.262 134.433,20.955 131.549,11.439C127.419,-2.186 41.422,-78.2 41.422,-78.2L-14.356,-78.461Z" style="fill-opacity:0.1;"/>
                                <path id="Pant2" serif:id="Pant" d="M70.8,93.62L87.379,99.655C122.336,60.212 136.038,27.669 133.54,11.088C131.042,-5.494 43.724,-78.401 43.724,-78.401L-15.545,-78.401C-13.523,-21.409 94.143,20.852 95.583,23.28C97.023,25.709 82.851,49.495 70.8,93.62Z" style="fill:rgb(0,176,163);"/>
                                <g id="Right--shoe-" serif:id="Right [shoe]">
                                    <path id="shoe2" serif:id="shoe" d="M67.379,104.275C66.533,103.465 65.173,103.478 64.421,104.376C63.051,106.014 61.103,108.508 60.522,110.103C59.597,112.645 58.669,117.83 58.669,117.83C61.618,118.903 111.67,137.12 111.67,137.12C111.67,137.12 116.222,131.042 111.969,128.877C107.716,126.713 104.931,125.202 104.931,125.202L84.294,105.254C83.889,104.863 83.241,104.883 82.861,105.299L79.88,108.564C79.88,108.564 75.059,108.987 72.483,108.049C70.915,107.478 68.796,105.632 67.379,104.275Z" style="fill:rgb(228,228,228);"/>
                                </g>
                                <path id="SKIN8" serif:id="SKIN" d="M-1,-78.462L-52.746,45.765L-103.604,150.788L-91.605,150.788L39.674,-78.462L-1,-78.462Z" style="fill:rgb(212,161,129);"/>
                                <g id="Left--shoe-" serif:id="Left [shoe]">
                                    <path id="shoe_22" serif:id="shoe_2" d="M-101.55,144.822C-102.622,144.351 -103.896,144.828 -104.295,145.929C-105.023,147.936 -106,150.947 -106,152.644C-106,155.349 -105.099,160.538 -105.099,160.538L-48.697,160.538C-48.697,160.538 -46.498,153.27 -51.235,152.69C-55.972,152.111 -59.105,151.644 -59.105,151.644L-85.32,139.957C-85.835,139.727 -86.437,139.968 -86.652,140.489L-88.337,144.577C-88.337,144.577 -92.722,146.623 -95.463,146.623C-97.132,146.623 -99.754,145.612 -101.55,144.822Z" style="fill:rgb(228,228,228);"/>
                                </g>
                                <path id="Pant3" serif:id="Pant" d="M-99.011,128.971L-72.349,133.971C-51.734,103.663 34.541,-20.61 44,-78.462L-15.356,-78.462C-46.945,-36.641 -79.361,98.162 -99.011,128.971Z" style="fill:rgb(94,235,221);"/>
                            </g>
                        </g>
                        <g id="Upper-Body2" serif:id="Upper Body" transform="matrix(1,0,0,1,22,82)">
                            <g id="Upper-Body-Pregnant" serif:id="Upper Body/Pregnant">
                                <path id="Shirt1" serif:id="Shirt" d="M50.729,39.802C31.738,79.354 -48.209,52.648 -48.209,52.648C-48.209,45.794 -45.49,38.923 -42.635,31.707C-39.574,23.969 -36.356,15.835 -36.163,6.899C-35.809,-9.54 -32.735,-59.349 -19.907,-76.175C-19.673,-76.935 -19.436,-77.697 -19.196,-78.462L-18.308,-78.044C-18.169,-78.187 -18.03,-78.326 -17.889,-78.462L10.101,-74.134C10.101,-61.473 18.203,-49.468 25.497,-38.661C27.271,-36.032 28.998,-33.473 30.549,-30.994C32.58,-27.745 34.871,-24.439 37.22,-21.051C49.115,-3.893 62.464,15.364 50.729,39.802Z" style="fill:rgb(94,114,235);"/>
                                <path id="SKIN9" serif:id="SKIN" d="M14.863,32.325C16.735,22.665 17.949,16.216 18.506,12.978C33.418,29.828 42.033,38.351 44.35,38.547C48.709,38.914 51.93,35.049 52.847,36.136C54.362,40.636 50.081,51.9 41.898,53.538C37.991,54.32 31.944,46.262 29.453,43.407C28.473,42.284 23.61,38.59 14.863,32.325ZM40.621,-19.179C44.487,-19.179 46.563,-17.581 48.849,-14.357C51.134,-11.133 53.297,4.073 49.628,4.073C45.958,4.073 30.583,-1.805 30.583,-5.757C30.583,-9.708 41.074,-11.382 41.074,-14.357C41.074,-17.332 36.756,-19.179 40.621,-19.179Z" style="fill:rgb(212,161,129);"/>
                                <path id="Shade1" serif:id="Shade" d="M-24.435,-59.743C-34.252,-18.811 -30.253,15.711 7.058,47.025C6.62,48.598 6.357,49.538 6.357,49.538C-37.439,18.929 -37.46,-18.165 -24.435,-59.743Z" style="fill-opacity:0.2;"/>
                            </g>
                        </g>
                    </g>
                </g>
            </g>
        </g>
    </g>
</svg>
