<?xml version="1.0" encoding="UTF-8" standalone="no"?>
<!DOCTYPE svg PUBLIC "-//W3C//DTD SVG 1.1//EN" "http://www.w3.org/Graphics/SVG/1.1/DTD/svg11.dtd">
<svg width="100%" height="100%" viewBox="0 0 449 433" version="1.1" xmlns="http://www.w3.org/2000/svg" xmlns:xlink="http://www.w3.org/1999/xlink" xml:space="preserve" xmlns:serif="http://www.serif.com/" style="fill-rule:evenodd;clip-rule:evenodd;stroke-linejoin:round;stroke-miterlimit:2;">
    <g transform="matrix(1,0,0,1,62,0)">
        <g transform="matrix(1,0,0,1,-13.8454,-54.0033)">
            <g id="Chart" transform="matrix(1,0,0,1,-1.7086,40.2533)">
                <path id="Value" d="M64.215,61.463C61.739,64.081 58.231,65.725 54.331,65.725C46.835,65.725 40.759,59.692 40.759,52.25C40.759,44.808 46.835,38.775 54.331,38.775L54.331,13.75C33.007,13.75 15.554,31.079 15.554,52.25C15.554,73.421 33.007,90.75 54.331,90.75C65.531,90.75 75.654,86.045 82.554,78.561L64.215,61.463Z" style="fill:rgb(242,242,242);"/>
                <path id="Value_2" d="M53.554,13.75L53.554,39.1C61.093,39.1 67.204,45.211 67.204,52.75L92.554,52.75C92.554,31.304 75,13.75 53.554,13.75Z" style="fill:rgb(66,165,255);"/>
                <path id="Value_3" d="M66.846,51.75C66.846,56.151 64.773,60.062 61.554,62.588L77.392,82.75C86.611,75.532 92.554,64.343 92.554,51.75L66.846,51.75Z" style="fill:rgb(197,207,214);"/>
            </g>
            <g id="Head-Front" serif:id="Head/Front" transform="matrix(1.10156,0,0,1.1044,101.859,127.148)">
                <g id="Head-Front-Bun-and-Mullet" serif:id="Head/Front/Bun and Mullet">
                    <g id="Head">
                        <path id="SKIN" d="M49.489,47.994C55.965,51.897 62.328,53.783 65.314,53.013C72.804,51.083 73.492,23.685 67.697,12.884C61.903,2.083 32.112,-2.625 30.611,18.776C30.09,26.203 33.208,32.831 37.816,38.24L29.554,76.75L53.554,76.75L49.489,47.994Z" style="fill:rgb(178,139,103);"/>
                    </g>
                    <path id="hair" d="M58.218,1.12C41.554,-5.107 28.486,6.925 26.753,8.905C24.916,11.005 23.694,13.628 22.789,16.297C21.807,19.195 21.199,22.207 20.975,25.275C20.762,28.191 20.742,31.273 21.426,34.127C22.065,36.795 23.432,38.984 25.715,40.372C26.76,41.008 27.885,41.486 29.017,41.923C30.132,42.353 31.25,42.772 32.418,43.013C34.629,43.47 37.176,43.392 38.879,41.632C39.493,40.998 40.168,40.201 40.615,39.426C40.776,39.147 40.874,38.965 40.678,38.693C40.444,38.366 40.065,38.116 39.764,37.861C38.047,36.406 36.984,34.464 36.717,32.155C36.445,29.813 37.074,26.789 39.351,25.767C42.162,24.505 45.258,25.954 47.757,27.304C48.819,23.556 50.999,20.182 54.417,18.462C58.199,16.56 62.539,16.338 66.425,14.706C67.438,14.281 68.469,13.798 69.215,12.932C69.527,12.57 69.892,12.1 70.017,11.621C70.18,10.992 69.774,10.465 69.461,9.974C67.799,7.374 64.565,3.492 58.218,1.12Z" style="fill:rgb(24,22,88);"/>
                    <circle id="Oval" cx="30.554" cy="-2.25" r="15" style="fill:rgb(24,22,88);"/>
                    <path id="Path-5" serif:id="Path 5" d="M27.487,38.88C27.487,38.88 19.386,58.044 12.557,64.365C15.554,70.716 31.46,69.952 31.46,69.952L37.457,41.891L27.487,38.88Z" style="fill:rgb(24,22,88);"/>
                </g>
            </g>
            <g id="Lower-Body-Sitting" serif:id="Lower Body/Sitting" transform="matrix(1.10156,0,0,1.1044,11.5312,333.67)">
                <g id="Lower-Body-Sitting-Skinny-Jeans-1" serif:id="Lower Body/Sitting/Skinny Jeans 1">
                    <g id="Seat">
                        <g id="Seat_2">
                            <path id="Seat-Stuff" serif:id="Seat Stuff" d="M68.177,14.75L145.431,14.75L155.554,138.75L40.554,138.75L68.177,14.75Z" style="fill:rgb(197,207,214);"/>
                            <path id="Seat-Stuff_2" serif:id="Seat Stuff_2" d="M68.177,14.75L91.937,14.75L106.158,138.75L40.554,138.75L68.177,14.75Z" style="fill-opacity:0.1;"/>
                        </g>
                    </g>
                    <path id="LegBack" d="M187.877,39.317C179.196,57.728 165.631,102.422 165.631,102.422L177.147,107.684C177.147,107.684 206.368,60.702 224.226,28.586C223.394,35.816 222.547,43.956 221.762,52.513C219.901,72.783 221.761,116.577 222.762,129.227C223.391,137.178 234.194,135.512 235.202,129.207C235.373,128.139 236.069,124.389 237.108,118.795C242.201,91.363 255.531,19.568 255.554,1.988C255.564,-5.085 241.744,-11.44 233.507,-6.494C227.85,-12.531 217.142,-16.01 210.99,-6.038C207.079,0.302 197.787,18.3 187.877,39.317Z" style="fill:rgb(178,139,103);"/>
                    <path id="LegLower" d="M166.454,85.875L205.981,-7.763C215.451,-22.995 242,-4.663 238.771,4.172C231.439,24.229 194.154,89.164 191.969,95.14L166.454,85.875Z" style="fill:rgb(0,176,163);"/>
                    <path id="shoe" d="M167.218,96.935C166.525,95.991 165.184,95.767 164.288,96.521C162.653,97.896 160.302,100.014 159.453,101.484C158.101,103.826 156.287,108.771 156.287,108.771C159.004,110.34 205.132,136.972 205.132,136.972C205.132,136.972 210.67,131.777 206.858,128.907C203.045,126.036 200.566,124.065 200.566,124.065L183.706,100.837C183.375,100.381 182.733,100.288 182.287,100.632L178.784,103.329C178.784,103.329 173.963,102.909 171.589,101.538C170.143,100.703 168.378,98.517 167.218,96.935Z" style="fill:rgb(228,228,228);"/>
                    <path id="shoe_2" d="M223.004,123.034C221.932,122.563 220.658,123.04 220.259,124.141C219.531,126.148 218.554,129.159 218.554,130.856C218.554,133.561 219.455,138.75 219.455,138.75L275.857,138.75C275.857,138.75 278.056,131.482 273.319,130.902C268.582,130.323 265.449,129.856 265.449,129.856L239.234,118.169C238.719,117.939 238.117,118.18 237.902,118.701L236.217,122.789C236.217,122.789 231.832,124.835 229.091,124.835C227.422,124.835 224.8,123.824 223.004,123.034Z" style="fill:rgb(228,228,228);"/>
                    <path id="Leg-and-Butt" serif:id="Leg and Butt" d="M258.324,9.183C258.324,35.75 245.708,97.72 245.7,103.57L218.554,103.591C218.554,103.591 224.514,20.648 222.781,19.754C221.047,18.861 151.73,26.675 130.94,26.675C100.962,26.675 88.56,7.77 87.554,-27.25L146.94,-27.25C159.032,-25.956 222.103,-13.235 245.526,-8.862C255.554,-6.989 258.324,1.864 258.324,9.183Z" style="fill:rgb(94,235,221);"/>
                </g>
            </g>
            <g id="Upper-Body" serif:id="Upper Body" transform="matrix(1.10156,0,0,1.1044,35.7656,217.709)">
                <g id="Upper-Body-Pointing-Forward" serif:id="Upper Body/Pointing Forward">
                    <path id="SKIN1" serif:id="SKIN" d="M168.902,-3.56L134.192,15.45L147.01,29.208L172.231,6.115C185.517,2.454 191.593,-0.225 190.458,-1.921C189.502,-3.35 187.959,-3.301 186.539,-3.255C185.432,-3.219 184.399,-3.186 183.774,-3.856C182.348,-5.387 185.069,-10.74 187.869,-15.708C190.668,-20.677 187.675,-20.245 185.963,-19.53C180.361,-15.738 174.674,-10.414 168.902,-3.56ZM203.8,23.114L188.554,31.49L189.422,46.79C189.422,46.79 199.297,39.663 207.792,37.294C218.624,34.274 223.007,31.968 228.3,25.223C231.132,21.615 233.536,14.36 230.84,11.998C229.806,11.091 225.953,13.232 222.022,15.417C219.026,17.082 215.984,18.772 214.11,19.158C211.588,19.677 211.883,16.407 212.119,13.795C212.288,11.92 212.427,10.383 211.472,10.827C207.009,10.904 203.8,23.114 203.8,23.114Z" style="fill:rgb(153,118,89);"/>
                    <g id="Group-3" serif:id="Group 3">
                        <path id="Mask" d="M117.288,11.215C129.446,11.087 145.658,8.519 162.957,-2.461L169.75,12.689C157.818,24.53 141.04,34.26 126.37,33.848C114.809,33.523 108.901,19.539 117.288,11.215Z" style="fill:rgb(197,207,214);"/>
                    </g>
                    <g id="Group-27" serif:id="Group 27">
                        <path id="Mask1" serif:id="Mask" d="M84.499,115.009C72.941,113.502 62.32,112.117 56.027,113.356C48.965,90.423 54.829,75.984 60.242,62.655C63.504,54.621 66.603,46.99 66.61,38.147C66.629,12.392 87.308,-27.25 90.351,-27.25L118.098,-27.25C119.338,-11.313 124.633,5.943 129.961,23.31C131.206,27.365 132.452,31.427 133.649,35.479C153.814,40.057 198.59,24.123 198.59,24.123C198.59,24.123 209.894,47.509 209.041,57.467C182.978,71.081 160.641,77.151 142.237,77.552C142.822,88.471 141.493,98.862 137.028,108.356C131.045,121.077 106.13,117.829 84.499,115.009Z" style="fill:rgb(242,242,242);"/>
                    </g>
                </g>
            </g>
            <g id="Bars" transform="matrix(1,0,0,1,-9.72244,69.7533)">
                <path id="Rectangle" d="M345.554,9.75C345.554,7.542 343.762,5.75 341.554,5.75L239.554,5.75C237.346,5.75 235.554,7.542 235.554,9.75L235.554,17.75C235.554,19.958 237.346,21.75 239.554,21.75L341.554,21.75C343.762,21.75 345.554,19.958 345.554,17.75L345.554,9.75Z" style="fill:rgb(94,235,221);"/>
                <path id="Rectangle1" serif:id="Rectangle" d="M305.554,33.75C305.554,31.542 303.762,29.75 301.554,29.75L239.554,29.75C237.346,29.75 235.554,31.542 235.554,33.75L235.554,41.75C235.554,43.958 237.346,45.75 239.554,45.75L301.554,45.75C303.762,45.75 305.554,43.958 305.554,41.75L305.554,33.75Z" style="fill:rgb(193,222,226);"/>
                <path id="Rectangle_2" d="M321.554,57.75C321.554,55.542 319.762,53.75 317.554,53.75L239.554,53.75C237.346,53.75 235.554,55.542 235.554,57.75L235.554,65.75C235.554,67.958 237.346,69.75 239.554,69.75L317.554,69.75C319.762,69.75 321.554,67.958 321.554,65.75L321.554,57.75Z" style="fill:rgb(193,222,226);"/>
            </g>
            <g id="Graph" transform="matrix(1,0,0,1,-47.7086,-165.654)">
                <path id="Value_4" d="M5.554,433.75C5.554,432.094 4.21,430.75 2.554,430.75C0.898,430.75 -0.446,432.094 -0.446,433.75L-0.446,452.75C-0.446,454.406 0.898,455.75 2.554,455.75C4.21,455.75 5.554,454.406 5.554,452.75L5.554,433.75Z" style="fill:rgb(66,165,255);"/>
                <path id="Value_5" d="M19.554,417.75C19.554,416.094 18.21,414.75 16.554,414.75C14.898,414.75 13.554,416.094 13.554,417.75L13.554,452.75C13.554,454.406 14.898,455.75 16.554,455.75C18.21,455.75 19.554,454.406 19.554,452.75L19.554,417.75Z" style="fill:rgb(66,165,255);"/>
                <path id="Value_6" d="M33.554,409.75C33.554,408.094 32.21,406.75 30.554,406.75C28.898,406.75 27.554,408.094 27.554,409.75L27.554,452.75C27.554,454.406 28.898,455.75 30.554,455.75C32.21,455.75 33.554,454.406 33.554,452.75L33.554,409.75Z" style="fill:rgb(66,165,255);"/>
                <path id="Value_7" d="M47.554,417.75C47.554,416.094 46.21,414.75 44.554,414.75C42.898,414.75 41.554,416.094 41.554,417.75L41.554,452.75C41.554,454.406 42.898,455.75 44.554,455.75C46.21,455.75 47.554,454.406 47.554,452.75L47.554,417.75Z" style="fill:rgb(66,165,255);"/>
                <path id="Value1" serif:id="Value" d="M61.554,401.75C61.554,400.094 60.21,398.75 58.554,398.75C56.898,398.75 55.554,400.094 55.554,401.75L55.554,452.75C55.554,454.406 56.898,455.75 58.554,455.75C60.21,455.75 61.554,454.406 61.554,452.75L61.554,401.75Z" style="fill:rgb(94,235,221);"/>
            </g>
            <g id="Pie-Chart" serif:id="Pie Chart" transform="matrix(1,0,0,1,42.4313,-134.175)">
                <path id="Value_8" d="M299.554,438.266C299.554,422.035 312.607,408.75 328.554,408.75L328.554,438.266L308.735,459.75C303.098,454.498 299.554,446.792 299.554,438.266Z" style="fill:rgb(242,242,242);"/>
                <path id="Value_9" d="M327.446,437.75L356.554,437.75C356.554,445.32 353.485,452.414 348.632,457.569C343.295,463.206 335.695,466.75 327.446,466.75C319.848,466.75 312.892,463.692 307.554,458.858L327.446,437.75Z" style="fill:rgb(175,185,197);"/>
                <path id="Value_10" d="M357.554,437.75C357.554,421.803 344.501,408.75 328.554,408.75L328.554,437.75L357.554,437.75ZM314.054,408.75L325.654,434.85L299.554,423.25C302.135,416.484 307.931,411.331 314.054,408.75Z" style="fill:rgb(137,145,220);"/>
            </g>
        </g>
    </g>
</svg>
