<svg viewBox="-1.5957446808510838 26.625 271.27659574468083 404.6999999999999" fill="none" xmlns="http://www.w3.org/2000/svg" xmlns:xlink="http://www.w3.org/1999/xlink" overflow="visible" width="271.27659574468083px" height="404.6999999999999px"><g id="Master/Pose/Standing"><g id="Head/Front" transform="translate(82 0) scale(1 1)"><g id="Head/Front/Long"><path id="Hair Back" fill-rule="evenodd" clip-rule="evenodd" d="M72.5 27C60.6259 27 51 36.6259 51 48.5V69.5C51 80.5658 59.3599 89.679 70.1086 90.8685C70.1114 90.9197 70.1143 90.971 70.1173 91.0225H99.1173C103.701 86.5438 99.209 57.9923 95.762 45.2902C94.2125 34.9385 85.2833 27 74.5 27H72.5Z" fill="#4a312c"/><g id="Head"><path id="SKIN" fill-rule="evenodd" clip-rule="evenodd" d="M73.9354 75.2443C80.411 79.1475 86.7736 81.0333 89.7603 80.2635C97.2496 78.333 97.9382 50.9351 92.1433 40.1339C86.3485 29.3328 56.5583 24.625 55.0568 46.0255C54.5356 53.4529 57.6544 60.0814 62.2623 65.4901L54 104H78L73.9354 75.2443Z" fill="#dcae92"/></g><path id="Hair Front" fill-rule="evenodd" clip-rule="evenodd" d="M51.8812 46.1504C52.578 45.4614 53.2522 44.7947 53.9211 44.1981L53.8889 43.4207C53.8889 43.4207 61.4214 28 73.0014 28C84.5711 28 88.23 33.3787 91.3403 37.9508L91.3487 37.9631C89.7218 43.5452 84.8187 45.8037 79.2736 48.3579C76.8866 49.4574 74.3806 50.6117 71.9657 52.1095C71.0199 51.341 69.8137 50.8804 68.5 50.8804C65.4624 50.8804 63 53.3428 63 56.3804C63 59.418 65.4624 61.8804 68.5 61.8804C68.5838 61.8804 68.6671 61.8785 68.75 61.8748C69.8557 73.7528 69.4127 87.3173 66.1173 90.5371H37.1173C36.2848 76.0731 40.0264 71.947 43.8498 67.7307C47.4474 63.7635 51.1173 59.7166 51.1173 46.9028C51.3754 46.6506 51.6298 46.3991 51.8812 46.1505L51.8812 46.1504Z" fill="#4a312c"/></g></g><g id="Lower Body/Standing" transform="translate(0 187) scale(1 1)"><g id="Lower Body/Standing/Skirt"><path id="Skirt Shadow" fill-rule="evenodd" clip-rule="evenodd" d="M97.4077 98.0881C97.4077 98.0881 133.392 108.153 159.5 108.153C185.607 108.153 208 92.6533 208 92.6533C208 92.6533 172.786 82.3228 150 82.3228C127.214 82.3228 97.4077 98.0881 97.4077 98.0881Z" fill="#191847"/><path id="SKIN" fill-rule="evenodd" clip-rule="evenodd" d="M180.267 117.824C180.036 117.477 179.84 117.098 179.685 116.689C176.479 108.208 125.117 16.7255 120 0H177.826C181.717 12.7167 199.227 92.5198 201.691 108.442C209.467 133.557 225.475 214.895 227.519 220.53C229.669 226.458 217.572 232.633 214.349 225.346C209.22 213.75 196.999 181.665 191.557 162.074C186.456 143.708 182.302 127.184 180.267 117.824Z" fill="#dcae92"/><path id="Shadow" fill-rule="evenodd" clip-rule="evenodd" d="M180.267 117.824C180.036 117.477 179.84 117.098 179.685 116.689C176.479 108.208 125.117 16.7255 120 0H177.826C181.717 12.7167 199.227 92.5198 201.691 108.442C209.467 133.557 225.475 214.895 227.519 220.53C229.669 226.458 217.572 232.633 214.349 225.346C209.22 213.75 196.999 181.665 191.557 162.074C186.456 143.708 182.302 127.184 180.267 117.824Z" fill="black" fill-opacity="0.1"/><path id="SKIN" fill-rule="evenodd" clip-rule="evenodd" d="M132.957 128.994C109.475 134.928 23.5841 145.658 17.6899 147.341C11.6265 149.072 6.31016 136.574 13.8048 133.867C25.7299 129.559 58.5892 119.606 78.5119 115.544C94.5365 112.277 109.159 109.611 118.976 108.05C118.145 80.4734 114.343 14.2935 116.835 0H168C165.61 13.7065 145.41 113.718 141.656 123.729C140.464 127.302 136.909 128.882 132.957 128.994V128.994Z" fill="#dcae92"/><g id="Left [shoe]"><path id="shoe" fill-rule="evenodd" clip-rule="evenodd" d="M15.9311 133.074C16.2095 131.937 15.5182 130.765 14.3648 130.563C12.2611 130.195 9.12692 129.756 7.45574 130.05C4.7919 130.52 -0.162158 132.309 -0.162158 132.309C0.382733 135.399 9.63191 187.854 9.63191 187.854C9.63191 187.854 17.1715 188.757 16.9197 183.991C16.6679 179.226 16.5838 176.059 16.5838 176.059L23.5408 148.213C23.6774 147.667 23.3357 147.115 22.7854 146.994L18.4673 146.044C18.4673 146.044 15.691 142.081 15.215 139.381C14.9252 137.738 15.4647 134.98 15.9311 133.074Z" fill="#E4E4E4"/></g><g id="Right [shoe]"><path id="shoe_2" fill-rule="evenodd" clip-rule="evenodd" d="M213.45 223.284C212.378 222.813 211.104 223.29 210.705 224.391C209.977 226.398 209 229.409 209 231.106C209 233.811 209.901 239 209.901 239C213.039 239 266.303 239 266.303 239C266.303 239 268.502 231.732 263.765 231.152C259.028 230.573 255.895 230.106 255.895 230.106L229.68 218.419C229.165 218.189 228.563 218.43 228.348 218.951L226.663 223.039C226.663 223.039 222.278 225.085 219.537 225.085C217.868 225.085 215.246 224.074 213.45 223.284Z" fill="#E4E4E4"/></g><path id="Skirt" fill-rule="evenodd" clip-rule="evenodd" d="M117 4.14848e-05C117 4.14848e-05 150.82 -9.67607 181 4.14848e-05C188 31.9375 205.009 44.6135 208 93.579C174 110.473 132 81.5305 97.0001 98.0054C87.0001 74.9612 101 19.4646 117 4.14848e-05Z" fill="#393f82"/></g></g><g id="Upper Body" transform="translate(22 82) scale(1 1)"><g id="Upper Body/Hoodie"><path id="SKIN" fill-rule="evenodd" clip-rule="evenodd" d="M222.68 115.635L190.781 92.2115L183.73 109.642L215.318 122.741C224.251 133.235 229.246 137.61 230.304 135.865C231.195 134.394 230.499 133.017 229.857 131.749C229.357 130.76 228.89 129.838 229.233 128.989C230.018 127.049 236.019 127.254 241.705 127.691C247.392 128.128 245.735 125.598 244.364 124.349C238.559 120.874 231.331 117.97 222.68 115.635ZM55.398 156.908C58.3285 150.963 68.308 93.0199 68.308 93.0199L89.2054 93.1021C89.2054 93.1021 69.8506 155.583 68.308 159.406C66.3041 164.372 69.708 171.587 72.0162 176.48C72.3733 177.237 72.7041 177.938 72.9847 178.567C69.782 180 68.2435 178.268 66.6216 176.442C64.7896 174.379 62.8512 172.197 58.288 174.319C56.525 175.14 54.8568 176.109 53.2269 177.057C47.5969 180.329 42.4249 183.336 35.3891 178.994C34.2737 178.306 33.0514 175.715 36.0047 173.69C43.3624 168.645 53.9654 159.815 55.398 156.908Z" fill="#dcae92"/><path id="Coat Back" fill-rule="evenodd" clip-rule="evenodd" d="M127.695 5.33203L136.342 3.84886C168.425 31.5643 181.603 84.8089 220.929 113.015L211.464 124.748C143.24 116.3 126.33 51.3548 127.695 5.33203Z" fill="#00b0a3"/><path id="Shirt" fill-rule="evenodd" clip-rule="evenodd" d="M90 114C90 114 142.008 114 166.511 114C170.008 114 169.349 108.952 168.843 106.404C163.011 77.0038 140.241 45.3115 140.241 3.46073L118.172 0C99.9175 29.3584 93.6048 65.5046 90 114Z" fill="#C7D1D9"/><path id="Coat Front" fill-rule="evenodd" clip-rule="evenodd" d="M81.3968 135C77.9582 143.259 74.5862 150.465 71.4089 156H54.9999C53.2345 98.9186 74.8454 54.9964 92.9315 28.5129C88.9158 28.2259 85.2911 26.5455 82.9999 22.4112C74.9335 7.85608 77.8467 -0.157593 86.4671 -2.79173C91.2074 -4.24021 95.6656 -3.25154 101.002 -2.06804C105.369 -1.09961 110.325 -0.000719281 116.504 2.76336e-08C116.506 2.76336e-08 116.508 2.76336e-08 116.51 2.76336e-08C117.109 2.76336e-08 117.654 0.0401216 118.148 0.116866L125.472 0.53474C125.472 0.53474 155.205 101.305 141.872 135H81.3968Z" fill="#5eebdd"/><path id="Shade" fill-rule="evenodd" clip-rule="evenodd" d="M81.397 135C85.9087 124.164 90.5352 111.516 94.9874 98.4544C96.6448 112.839 99.4048 127.286 104 135H81.397Z" fill="black" fill-opacity="0.1"/></g></g></g></svg>