<svg viewBox="14.361702127659584 26.625 265.9574468085106 404.6999999999999" fill="none" xmlns="http://www.w3.org/2000/svg" xmlns:xlink="http://www.w3.org/1999/xlink" overflow="visible" width="265.9574468085106px" height="404.6999999999999px"><g id="Master/Pose/Standing"><g id="Head/Front" transform="translate(82 0) scale(1 1)"><g id="Head/Front/Long"><path id="Hair Back" fill-rule="evenodd" clip-rule="evenodd" d="M72.5 27C60.6259 27 51 36.6259 51 48.5V69.5C51 80.5658 59.3599 89.679 70.1086 90.8685C70.1114 90.9197 70.1143 90.971 70.1173 91.0225H99.1173C103.701 86.5438 99.209 57.9923 95.762 45.2902C94.2125 34.9385 85.2833 27 74.5 27H72.5Z" fill="#4a312c"/><g id="Head"><path id="SKIN" fill-rule="evenodd" clip-rule="evenodd" d="M73.9354 75.2443C80.411 79.1475 86.7736 81.0333 89.7603 80.2635C97.2496 78.333 97.9382 50.9351 92.1433 40.1339C86.3485 29.3328 56.5583 24.625 55.0568 46.0255C54.5356 53.4529 57.6544 60.0814 62.2623 65.4901L54 104H78L73.9354 75.2443Z" fill="#dcae92"/></g><path id="Hair Front" fill-rule="evenodd" clip-rule="evenodd" d="M51.8812 46.1504C52.578 45.4614 53.2522 44.7947 53.9211 44.1981L53.8889 43.4207C53.8889 43.4207 61.4214 28 73.0014 28C84.5711 28 88.23 33.3787 91.3403 37.9508L91.3487 37.9631C89.7218 43.5452 84.8187 45.8037 79.2736 48.3579C76.8866 49.4574 74.3806 50.6117 71.9657 52.1095C71.0199 51.341 69.8137 50.8804 68.5 50.8804C65.4624 50.8804 63 53.3428 63 56.3804C63 59.418 65.4624 61.8804 68.5 61.8804C68.5838 61.8804 68.6671 61.8785 68.75 61.8748C69.8557 73.7528 69.4127 87.3173 66.1173 90.5371H37.1173C36.2848 76.0731 40.0264 71.947 43.8498 67.7307C47.4474 63.7635 51.1173 59.7166 51.1173 46.9028C51.3754 46.6506 51.6298 46.3991 51.8812 46.1505L51.8812 46.1504Z" fill="#4a312c"/></g></g><g id="Lower Body/Standing" transform="translate(0 187) scale(1 1)"><g id="Lower Body/Standing/Baggy Pants"><path id="SKIN" fill-rule="evenodd" clip-rule="evenodd" d="M134 0L183.082 124.227L216.001 229.25H229L176.674 0L134 0Z" fill="#dcae92"/><path id="SKIN" fill-rule="evenodd" clip-rule="evenodd" d="M124.117 0C123.594 43.6542 115.972 102.427 114.754 105.149C113.536 107.87 30.6758 174.358 30.6758 174.358L39.629 183.939C39.629 183.939 137.397 126.934 141.921 119.331C146.445 111.728 161.174 41.7631 173 0H124.117Z" fill="#dcae92"/><g id="Left [Shoe]"><path id="shoe" fill-rule="evenodd" clip-rule="evenodd" d="M32.116 172.564C31.7884 171.44 30.604 170.771 29.5042 171.173C27.4981 171.906 24.5641 173.092 23.2642 174.183C21.1921 175.922 17.7961 179.948 17.7961 179.948C19.8131 182.352 54.0505 223.154 54.0505 223.154C54.0505 223.154 61.0315 220.166 58.4307 216.165C55.8299 212.164 54.1738 209.464 54.1738 209.464L46.2757 181.87C46.1206 181.328 45.549 181.022 45.012 181.192L40.7975 182.529C40.7975 182.529 36.4116 180.485 34.6494 178.384C33.5766 177.106 32.665 174.448 32.116 172.564Z" fill="#E4E4E4"/></g><g id="Right {Shoe]"><path id="shoe_2" fill-rule="evenodd" clip-rule="evenodd" d="M213.45 223.284C212.378 222.813 211.104 223.29 210.705 224.391C209.977 226.398 209 229.409 209 231.106C209 233.811 209.901 239 209.901 239C213.039 239 266.303 239 266.303 239C266.303 239 268.502 231.732 263.765 231.152C259.028 230.573 255.895 230.106 255.895 230.106L229.68 218.419C229.165 218.189 228.563 218.43 228.348 218.951L226.663 223.039C226.663 223.039 222.278 225.085 219.537 225.085C217.868 225.085 215.246 224.074 213.45 223.284Z" fill="#E4E4E4"/></g><path id="Pant" fill-rule="evenodd" clip-rule="evenodd" d="M167 218.433L228.804 211.725L179 0H127.644L167 218.433Z" fill="#191847"/><path id="Pant" fill-rule="evenodd" clip-rule="evenodd" d="M43.46 158.9L84 206.886C84 206.886 148.05 136.932 158.683 115.596C169.315 94.26 177.799 0 177.799 0H115.478C115.478 0 110.844 82.9258 109.231 86.7848C107.617 90.6437 43.46 158.9 43.46 158.9Z" fill="#393f82"/></g></g><g id="Upper Body" transform="translate(22 82) scale(1 1)"><g id="Upper Body/Jacket 2"><path id="SKIN" fill-rule="evenodd" clip-rule="evenodd" d="M234.235 61.7042L198 77.6171L209.57 92.4393L236.707 71.6329C250.262 69.1432 256.549 67.0043 255.566 65.2163C254.738 63.7087 253.197 63.6237 251.778 63.5454C250.672 63.4844 249.64 63.4275 249.076 62.7053C247.789 61.056 250.966 55.9611 254.188 51.2552C257.41 46.5492 254.39 46.7192 252.623 47.282C246.711 50.5716 240.582 55.379 234.235 61.7042ZM72 86.0658L51.5083 82C37.6109 118.63 29.3256 138.702 26.6523 142.218C24.692 144.796 12.6026 151.437 4.41982 154.984C1.13535 156.407 1.84055 159.183 2.80388 160.071C8.88024 165.672 14.5292 163.709 20.6783 161.572C22.4585 160.953 24.2806 160.32 26.1672 159.851C31.0502 158.639 32.5361 161.15 33.9404 163.523C35.1837 165.624 36.363 167.616 39.7793 166.821C39.6239 166.151 39.433 165.4 39.227 164.589C37.8952 159.349 35.9312 151.62 38.845 147.13C40.3404 144.826 51.3921 124.471 72 86.0658Z" fill="#dcae92"/><path id="Coat Back" fill-rule="evenodd" clip-rule="evenodd" d="M127.695 5.33206L136.342 3.84889C155.176 22.119 162.862 66.0125 175.414 71.8225C187.281 77.3157 204.104 72 224.1 64.8225L230.223 78.5046C212.055 98.1606 173.349 114.767 157.66 105.287C132.576 90.1298 126.786 35.9937 127.695 5.33206Z" fill="#00b0a3"/><path id="Shirt" fill-rule="evenodd" clip-rule="evenodd" d="M90 114C90 114 142.008 114 166.511 114C170.008 114 169.349 108.952 168.843 106.404C163.011 77.0038 140.241 45.3115 140.241 3.46073L118.172 0C99.9175 29.3584 93.6048 65.5046 90 114Z" fill="#C7D1D9"/><path id="Coat Front" fill-rule="evenodd" clip-rule="evenodd" d="M117 0H116.748C67.2466 30.5044 37.3306 77.7907 27 141.859L43.0374 145C53.6609 132.623 66.7714 112.368 82.3688 84.2332C77.5834 101.181 74.0896 118.563 73 135H141.872C155.205 101.305 125.486 0 125.486 0H120.731H117Z" fill="#5eebdd"/></g></g></g></svg>